<svg width="44" height="42" viewBox="0 0 44 42" fill="none" xmlns="http://www.w3.org/2000/svg">
<path d="M25.8665 0H2.95617C2.17214 0 1.42023 0.237053 0.865842 0.65901C0.311452 1.08097 0 1.65326 0 2.25V39.75C0 40.3467 0.311452 40.919 0.865842 41.341C1.42023 41.7629 2.17214 42 2.95617 42H25.8665V0ZM40.401 0H33.2569V42H40.401C41.185 42 41.9369 41.7629 42.4913 41.341C43.0457 40.919 43.3572 40.3467 43.3572 39.75V2.25C43.3572 1.65326 43.0457 1.08097 42.4913 0.65901C41.9369 0.237053 41.185 0 40.401 0Z" fill="#55F4BB"/>
</svg>
