<svg width="32" height="32" viewBox="0 0 32 32" fill="none" xmlns="http://www.w3.org/2000/svg">
<path d="M16 28C14.5218 28 13.136 27.7218 11.8427 27.1653C10.5494 26.6089 9.41913 25.8476 8.45202 24.8813C7.4858 23.9142 6.72447 22.784 6.16802 21.4907C5.61158 20.1973 5.33336 18.8116 5.33336 17.3333C5.33336 15.8551 5.61158 14.4693 6.16802 13.176C6.72447 11.8827 7.4858 10.7524 8.45202 9.78534C9.41913 8.81911 10.5494 8.05778 11.8427 7.50134C13.136 6.94489 14.5218 6.66667 16 6.66667C17.4782 6.66667 18.864 6.94489 20.1574 7.50134C21.4507 8.05778 22.5809 8.81911 23.548 9.78534C24.5142 10.7524 25.2756 11.8827 25.832 13.176C26.3885 14.4693 26.6667 15.8551 26.6667 17.3333C26.6667 18.8116 26.3885 20.1973 25.832 21.4907C25.2756 22.784 24.5142 23.9142 23.548 24.8813C22.5809 25.8476 21.4507 26.6089 20.1574 27.1653C18.864 27.7218 17.4782 28 16 28ZM20.1947 22.472L21.1387 21.528L16.6667 17.056V10.6667H15.3334V17.6107L20.1947 22.472ZM7.87736 4.56934L8.82002 5.51334L4.18002 10.1533L3.23602 9.21067L7.87736 4.56934ZM24.1227 4.56934L28.764 9.20934L27.82 10.1533L23.18 5.51334L24.1227 4.56934ZM16 26.6667C18.5831 26.6667 20.7845 25.7569 22.604 23.9373C24.4236 22.1178 25.3334 19.9164 25.3334 17.3333C25.3334 14.7502 24.4236 12.5489 22.604 10.7293C20.7845 8.90978 18.5831 8 16 8C13.4169 8 11.2156 8.90978 9.39602 10.7293C7.57647 12.5489 6.66669 14.7502 6.66669 17.3333C6.66669 19.9164 7.57647 22.1178 9.39602 23.9373C11.2156 25.7569 13.4169 26.6667 16 26.6667Z" fill="#F8F8F8"/>
</svg>
