<svg width="62" height="62" viewBox="0 0 62 62" fill="none" xmlns="http://www.w3.org/2000/svg">
<path d="M44.2983 13.9389C46.7544 13.9389 49.11 13.2046 50.8468 11.8976C52.5835 10.5906 53.5592 8.81785 53.5592 6.96944C53.5592 5.12103 52.5835 3.34832 50.8468 2.0413C49.11 0.734278 46.7544 0 44.2983 0C41.8421 0 39.4865 0.734278 37.7498 2.0413C36.013 3.34832 35.0373 5.12103 35.0373 6.96944C35.0373 8.81785 36.013 10.5906 37.7498 11.8976C39.4865 13.2046 41.8421 13.9389 44.2983 13.9389ZM25.694 20.5707C23.1277 21.0508 21.3763 21.7725 19.9625 22.6677C17.8427 24.012 16.1305 25.9511 13.8173 28.9991C13.2756 29.7123 12.3795 30.2345 11.3263 30.4505C10.273 30.6666 9.14882 30.559 8.20101 30.1513C7.25321 29.7437 6.55942 29.0693 6.27227 28.2767C5.98512 27.4841 6.12814 26.638 6.66986 25.9248C8.97276 22.8938 11.3004 20.058 14.6611 17.93C18.1679 15.706 22.4609 14.4484 28.25 13.9637C30.6702 13.7623 33.3333 13.8026 35.8296 14.6405C38.4494 15.5217 40.3634 17.0999 41.6681 19.2093C43.4257 22.0482 44.7325 23.7379 45.778 24.7183C46.2822 25.1875 46.6341 25.4059 46.8337 25.5035C46.9922 25.5809 47.0601 25.5871 47.0848 25.5902C47.2638 25.6057 47.8462 25.5902 49.5503 25.0218C50.2932 24.774 51.1041 24.4767 52.096 24.1127L52.3327 24.026C53.5458 23.5755 54.7698 23.1417 56.0041 22.725C57.0006 22.3958 58.1298 22.377 59.1447 22.6727C60.1596 22.9684 60.9776 23.5545 61.4197 24.3029C61.8618 25.0513 61.8921 25.9009 61.5039 26.6661C61.1158 27.4312 60.3407 28.0495 59.3484 28.3857C58.2046 28.7721 57.0705 29.1743 55.9465 29.5922L55.6769 29.6914C54.7282 30.0398 53.7733 30.3914 52.878 30.6888C51.0258 31.3052 48.6591 31.9742 46.0928 31.7404C43.3845 31.4926 41.2977 30.3418 39.5793 28.7977L33.9548 36.9644L41.734 44.5812C42.197 45.0365 42.4831 45.5786 42.5634 46.1485L44.2756 58.5324C44.3409 58.9404 44.2976 59.3542 44.1482 59.7495C43.9989 60.1447 43.7466 60.5137 43.4059 60.8349C43.0652 61.1561 42.643 61.423 42.1639 61.6202C41.6848 61.8174 41.1583 61.9408 40.6152 61.9834C40.072 62.0259 39.5231 61.9867 39.0003 61.868C38.4774 61.7493 37.9913 61.5535 37.57 61.292C37.1487 61.0305 36.8008 60.7085 36.5466 60.3448C36.2923 59.9811 36.1367 59.583 36.0889 59.1736L34.496 47.6617L29.7709 43.034L29.7297 43.0913L29.5568 42.8249L20.8268 34.2757C20.3977 33.8555 20.119 33.3595 20.0173 32.835C19.9157 32.3106 19.9946 31.7753 20.2465 31.2804L25.694 20.5707Z" fill="#F8F8F8"/>
<path d="M19.4623 38.73L16.433 44.8631L4.49658 44.1507C3.95389 44.1127 3.4066 44.1563 2.88646 44.2788C2.36632 44.4013 1.88369 44.6004 1.46659 44.8644C1.04949 45.1284 0.706214 45.4521 0.456691 45.8168C0.207168 46.1815 0.0563634 46.5798 0.0130302 46.9886C-0.0303029 47.3975 0.0346974 47.8088 0.20426 48.1986C0.373822 48.5884 0.644569 48.949 1.00079 49.2594C1.35701 49.5698 1.79161 49.8239 2.27936 50.007C2.76712 50.19 3.29832 50.2983 3.84214 50.3256L18.882 51.2239C19.7746 51.2773 20.666 51.1103 21.421 50.748C22.176 50.3858 22.7535 49.8482 23.0659 49.2167L25.3811 44.527L19.4623 38.73Z" fill="#F8F8F8"/>
</svg>
