<svg width="430" height="79" viewBox="0 0 430 79" fill="none" xmlns="http://www.w3.org/2000/svg">
<path d="M1 1H151.3C161.782 1 171.743 5.56854 178.582 13.5123L189.045 25.6657C202.942 41.807 227.737 42.4208 242.414 26.9868L256.485 12.1912C263.281 5.0453 272.711 1 282.572 1H429V78H1V1Z" fill="white"/>
<path d="M1 0.5H0.5V1V78V78.5H1H429H429.5V78V1V0.5H429H282.572C272.574 0.5 263.013 4.60148 256.123 11.8466L242.052 26.6422C227.578 41.8618 203.127 41.2566 189.424 25.3395L178.961 13.186C172.027 5.13199 161.927 0.5 151.3 0.5H1Z" stroke="black" stroke-opacity="0.13"/>
</svg>
