<svg width="20" height="20" viewBox="0 0 20 20" fill="none" xmlns="http://www.w3.org/2000/svg">
<path fill-rule="evenodd" clip-rule="evenodd" d="M6.6665 1.04163C7.01168 1.04163 7.2915 1.32145 7.2915 1.66663V4.16663C7.2915 4.5118 7.01168 4.79163 6.6665 4.79163C6.32133 4.79163 6.0415 4.5118 6.0415 4.16663V1.66663C6.0415 1.32145 6.32133 1.04163 6.6665 1.04163Z" fill="#49EEB3"/>
<path fill-rule="evenodd" clip-rule="evenodd" d="M13.3335 1.04163C13.6787 1.04163 13.9585 1.32145 13.9585 1.66663V4.16663C13.9585 4.5118 13.6787 4.79163 13.3335 4.79163C12.9883 4.79163 12.7085 4.5118 12.7085 4.16663V1.66663C12.7085 1.32145 12.9883 1.04163 13.3335 1.04163Z" fill="#49EEB3"/>
<path fill-rule="evenodd" clip-rule="evenodd" d="M2.2915 7.57495C2.2915 7.22977 2.57133 6.94995 2.9165 6.94995H17.0832C17.4283 6.94995 17.7082 7.22977 17.7082 7.57495C17.7082 7.92013 17.4283 8.19995 17.0832 8.19995H2.9165C2.57133 8.19995 2.2915 7.92013 2.2915 7.57495Z" fill="#49EEB3"/>
<path fill-rule="evenodd" clip-rule="evenodd" d="M3.94758 4.48774C3.41364 5.06275 3.125 5.9291 3.125 7.08329V14.1666C3.125 15.3208 3.41364 16.1872 3.94758 16.7622C4.47373 17.3288 5.32746 17.7083 6.66667 17.7083H13.3333C14.6725 17.7083 15.5263 17.3288 16.0524 16.7622C16.5864 16.1872 16.875 15.3208 16.875 14.1666V7.08329C16.875 5.9291 16.5864 5.06275 16.0524 4.48774C15.5263 3.92111 14.6725 3.54163 13.3333 3.54163H6.66667C5.32746 3.54163 4.47373 3.92111 3.94758 4.48774ZM3.03159 3.63718C3.8596 2.74547 5.08921 2.29163 6.66667 2.29163H13.3333C14.9108 2.29163 16.1404 2.74547 16.9684 3.63718C17.7886 4.5205 18.125 5.73748 18.125 7.08329V14.1666C18.125 15.5124 17.7886 16.7294 16.9684 17.6127C16.1404 18.5044 14.9108 18.9583 13.3333 18.9583H6.66667C5.08921 18.9583 3.8596 18.5044 3.03159 17.6127C2.21136 16.7294 1.875 15.5124 1.875 14.1666V7.08329C1.875 5.73748 2.21136 4.5205 3.03159 3.63718Z" fill="#49EEB3"/>
<path fill-rule="evenodd" clip-rule="evenodd" d="M12.2456 11.4166C12.2456 10.9563 12.6187 10.5833 13.0789 10.5833H13.0864C13.5467 10.5833 13.9198 10.9563 13.9198 11.4166C13.9198 11.8768 13.5467 12.2499 13.0864 12.2499H13.0789C12.6187 12.2499 12.2456 11.8768 12.2456 11.4166Z" fill="#49EEB3"/>
<path fill-rule="evenodd" clip-rule="evenodd" d="M12.2456 13.9166C12.2456 13.4563 12.6187 13.0833 13.0789 13.0833H13.0864C13.5467 13.0833 13.9198 13.4563 13.9198 13.9166C13.9198 14.3768 13.5467 14.7499 13.0864 14.7499H13.0789C12.6187 14.7499 12.2456 14.3768 12.2456 13.9166Z" fill="#49EEB3"/>
<path fill-rule="evenodd" clip-rule="evenodd" d="M9.16309 11.4166C9.16309 10.9563 9.53618 10.5833 9.99642 10.5833H10.0039C10.4641 10.5833 10.8372 10.9563 10.8372 11.4166C10.8372 11.8768 10.4641 12.2499 10.0039 12.2499H9.99642C9.53618 12.2499 9.16309 11.8768 9.16309 11.4166Z" fill="#49EEB3"/>
<path fill-rule="evenodd" clip-rule="evenodd" d="M9.16309 13.9166C9.16309 13.4563 9.53618 13.0833 9.99642 13.0833H10.0039C10.4641 13.0833 10.8372 13.4563 10.8372 13.9166C10.8372 14.3768 10.4641 14.7499 10.0039 14.7499H9.99642C9.53618 14.7499 9.16309 14.3768 9.16309 13.9166Z" fill="#49EEB3"/>
<path fill-rule="evenodd" clip-rule="evenodd" d="M6.07861 11.4166C6.07861 10.9563 6.45171 10.5833 6.91195 10.5833H6.91943C7.37967 10.5833 7.75277 10.9563 7.75277 11.4166C7.75277 11.8768 7.37967 12.2499 6.91943 12.2499H6.91195C6.45171 12.2499 6.07861 11.8768 6.07861 11.4166Z" fill="#49EEB3"/>
<path fill-rule="evenodd" clip-rule="evenodd" d="M6.07861 13.9166C6.07861 13.4563 6.45171 13.0833 6.91195 13.0833H6.91943C7.37967 13.0833 7.75277 13.4563 7.75277 13.9166C7.75277 14.3768 7.37967 14.7499 6.91943 14.7499H6.91195C6.45171 14.7499 6.07861 14.3768 6.07861 13.9166Z" fill="#49EEB3"/>
</svg>
