<svg width="75" height="80" viewBox="0 0 75 80" fill="none" xmlns="http://www.w3.org/2000/svg">
<path d="M68.75 0H6.25C4.5924 0 3.00268 0.702379 1.83058 1.95262C0.65848 3.20286 0 4.89856 0 6.66667V73.3333C0 75.1014 0.65848 76.7971 1.83058 78.0474C3.00268 79.2976 4.5924 80 6.25 80H68.75C70.4076 80 71.9973 79.2976 73.1694 78.0474C74.3415 76.7971 75 75.1014 75 73.3333V6.66667C75 4.89856 74.3415 3.20286 73.1694 1.95262C71.9973 0.702379 70.4076 0 68.75 0ZM59.375 43.3333H40.625V63.3333C40.625 64.2174 40.2958 65.0652 39.7097 65.6904C39.1237 66.3155 38.3288 66.6667 37.5 66.6667C36.6712 66.6667 35.8763 66.3155 35.2903 65.6904C34.7042 65.0652 34.375 64.2174 34.375 63.3333V43.3333H15.625C14.7962 43.3333 14.0013 42.9821 13.4153 42.357C12.8292 41.7319 12.5 40.8841 12.5 40C12.5 39.1159 12.8292 38.2681 13.4153 37.643C14.0013 37.0179 14.7962 36.6667 15.625 36.6667H34.375V16.6667C34.375 15.7826 34.7042 14.9348 35.2903 14.3096C35.8763 13.6845 36.6712 13.3333 37.5 13.3333C38.3288 13.3333 39.1237 13.6845 39.7097 14.3096C40.2958 14.9348 40.625 15.7826 40.625 16.6667V36.6667H59.375C60.2038 36.6667 60.9987 37.0179 61.5847 37.643C62.1708 38.2681 62.5 39.1159 62.5 40C62.5 40.8841 62.1708 41.7319 61.5847 42.357C60.9987 42.9821 60.2038 43.3333 59.375 43.3333Z" fill="#49EEB3"/>
</svg>
