<svg width="358" height="44" viewBox="0 0 358 44" fill="none" xmlns="http://www.w3.org/2000/svg">
<g filter="url(#filter0_d_28_523)">
<rect width="358" height="44" rx="12" fill="#55F4BB" fill-opacity="0.2"/>
<path d="M178.81 11.2481C184.281 11.2481 188.776 15.4241 189.536 20.8481H192.76L187.335 27.2481L181.91 20.8481H185.506C185.159 19.2818 184.308 17.8832 183.092 16.8806C181.876 15.8781 180.366 15.3307 178.81 15.3281C176.562 15.3281 174.578 16.4641 173.323 18.1761L170.672 15.0561C171.687 13.8585 172.938 12.8991 174.342 12.2423C175.745 11.5855 177.269 11.2465 178.81 11.2481ZM178.19 32.7521C172.734 32.7521 168.223 28.5761 167.464 23.1521H164.24L169.665 16.7521C171.478 18.8801 173.276 21.0241 175.09 23.1521H171.494C171.841 24.7183 172.692 26.1169 173.908 27.1195C175.124 28.122 176.634 28.6694 178.19 28.6721C180.437 28.6721 182.421 27.5361 183.677 25.8241L186.327 28.9441C185.314 30.1428 184.063 31.103 182.659 31.76C181.255 32.4169 179.731 32.7552 178.19 32.7521Z" fill="white"/>
<path d="M35 12C29.5 12 25 16.5 25 22C25 27.5 29.5 32 35 32C40.5 32 45 27.5 45 22C45 16.5 40.5 12 35 12ZM35 30C30.59 30 27 26.41 27 22C27 17.59 30.59 14 35 14C39.41 14 43 17.59 43 22C43 26.41 39.41 30 35 30ZM39.59 17.58L33 24.17L30.41 21.59L29 23L33 27L41 19L39.59 17.58Z" fill="#07DF5E"/>
<path d="M329 15.5H333C333 14.9696 332.789 14.4609 332.414 14.0858C332.039 13.7107 331.53 13.5 331 13.5C330.47 13.5 329.961 13.7107 329.586 14.0858C329.211 14.4609 329 14.9696 329 15.5ZM327.5 15.5C327.5 15.0404 327.591 14.5852 327.766 14.1606C327.942 13.736 328.2 13.3501 328.525 13.0251C328.85 12.7001 329.236 12.4423 329.661 12.2664C330.085 12.0905 330.54 12 331 12C331.46 12 331.915 12.0905 332.339 12.2664C332.764 12.4423 333.15 12.7001 333.475 13.0251C333.8 13.3501 334.058 13.736 334.234 14.1606C334.409 14.5852 334.5 15.0404 334.5 15.5H340.25C340.449 15.5 340.64 15.579 340.78 15.7197C340.921 15.8603 341 16.0511 341 16.25C341 16.4489 340.921 16.6397 340.78 16.7803C340.64 16.921 340.449 17 340.25 17H338.93L337.76 29.111C337.67 30.039 337.238 30.9002 336.548 31.5268C335.857 32.1534 334.958 32.5004 334.026 32.5H327.974C327.042 32.5001 326.143 32.153 325.453 31.5265C324.763 30.8999 324.331 30.0388 324.241 29.111L323.07 17H321.75C321.551 17 321.36 16.921 321.22 16.7803C321.079 16.6397 321 16.4489 321 16.25C321 16.0511 321.079 15.8603 321.22 15.7197C321.36 15.579 321.551 15.5 321.75 15.5H327.5ZM329.5 20.25C329.5 20.0511 329.421 19.8603 329.28 19.7197C329.14 19.579 328.949 19.5 328.75 19.5C328.551 19.5 328.36 19.579 328.22 19.7197C328.079 19.8603 328 20.0511 328 20.25V27.75C328 27.9489 328.079 28.1397 328.22 28.2803C328.36 28.421 328.551 28.5 328.75 28.5C328.949 28.5 329.14 28.421 329.28 28.2803C329.421 28.1397 329.5 27.9489 329.5 27.75V20.25ZM333.25 19.5C333.449 19.5 333.64 19.579 333.78 19.7197C333.921 19.8603 334 20.0511 334 20.25V27.75C334 27.9489 333.921 28.1397 333.78 28.2803C333.64 28.421 333.449 28.5 333.25 28.5C333.051 28.5 332.86 28.421 332.72 28.2803C332.579 28.1397 332.5 27.9489 332.5 27.75V20.25C332.5 20.0511 332.579 19.8603 332.72 19.7197C332.86 19.579 333.051 19.5 333.25 19.5ZM325.734 28.967C325.788 29.5236 326.047 30.0403 326.461 30.4161C326.875 30.792 327.415 31.0001 327.974 31H334.026C334.585 31.0001 335.125 30.792 335.539 30.4161C335.953 30.0403 336.212 29.5236 336.266 28.967L337.424 17H324.576L325.734 28.967Z" fill="#E60808"/>
</g>
<defs>
<filter id="filter0_d_28_523" x="-4" y="-2" width="366" height="52" filterUnits="userSpaceOnUse" color-interpolation-filters="sRGB">
<feFlood flood-opacity="0" result="BackgroundImageFix"/>
<feColorMatrix in="SourceAlpha" type="matrix" values="0 0 0 0 0 0 0 0 0 0 0 0 0 0 0 0 0 0 127 0" result="hardAlpha"/>
<feOffset dy="2"/>
<feGaussianBlur stdDeviation="2"/>
<feColorMatrix type="matrix" values="0 0 0 0 0 0 0 0 0 0 0 0 0 0 0 0 0 0 0.075 0"/>
<feBlend mode="normal" in2="BackgroundImageFix" result="effect1_dropShadow_28_523"/>
<feBlend mode="normal" in="SourceGraphic" in2="effect1_dropShadow_28_523" result="shape"/>
</filter>
</defs>
</svg>
