<svg width="40" height="40" viewBox="0 0 40 40" fill="none" xmlns="http://www.w3.org/2000/svg">
<path d="M20.0001 16.25C20.6904 16.25 21.2501 16.8096 21.2501 17.5V20.4167H24.1667C24.8571 20.4167 25.4167 20.9763 25.4167 21.6667C25.4167 22.357 24.8571 22.9167 24.1667 22.9167H21.2501V25.8333C21.2501 26.5237 20.6904 27.0833 20.0001 27.0833C19.3097 27.0833 18.7501 26.5237 18.7501 25.8333V22.9167H15.8334C15.1431 22.9167 14.5834 22.357 14.5834 21.6667C14.5834 20.9763 15.1431 20.4167 15.8334 20.4167H18.7501V17.5C18.7501 16.8096 19.3097 16.25 20.0001 16.25Z" fill="#49EEB3"/>
<path fill-rule="evenodd" clip-rule="evenodd" d="M14.0001 8.75C9.36532 8.75 5.41675 12.2155 5.41675 16.7163C5.41675 19.7994 6.73155 22.5107 8.55312 24.8026C10.3715 27.0904 12.7502 29.0322 15.0276 30.61C15.8975 31.2126 16.7775 31.7685 17.583 32.1787C18.3392 32.5638 19.2088 32.9167 20.0001 32.9167C20.7913 32.9167 21.6609 32.5638 22.4172 32.1787C23.2226 31.7685 24.1026 31.2126 24.9725 30.61C27.25 29.0322 29.6286 27.0904 31.447 24.8026C33.2686 22.5107 34.5834 19.7994 34.5834 16.7163C34.5834 12.2155 30.6348 8.75 26.0001 8.75C23.611 8.75 21.5087 9.87023 20.0001 11.3197C18.4915 9.87023 16.3892 8.75 14.0001 8.75ZM7.91675 16.7163C7.91675 13.7985 10.5347 11.25 14.0001 11.25C15.9903 11.25 17.8488 12.439 19.0091 13.9482C19.2458 14.2559 19.6119 14.4363 20.0001 14.4363C20.3883 14.4363 20.7544 14.2559 20.991 13.9482C22.1514 12.439 24.0098 11.25 26.0001 11.25C29.4655 11.25 32.0834 13.7985 32.0834 16.7163C32.0834 19.0555 31.0904 21.2333 29.4899 23.247C27.8863 25.2647 25.7285 27.0449 23.5488 28.5549C22.7241 29.1263 21.9472 29.6125 21.2827 29.951C20.569 30.3144 20.1556 30.4167 20.0001 30.4167C19.8445 30.4167 19.4312 30.3144 18.7175 29.951C18.053 29.6125 17.2761 29.1263 16.4513 28.5549C14.2716 27.0449 12.1139 25.2647 10.5102 23.247C8.90973 21.2333 7.91675 19.0555 7.91675 16.7163Z" fill="#49EEB3"/>
</svg>
