<svg width="75" height="64" viewBox="0 0 75 64" fill="none" xmlns="http://www.w3.org/2000/svg">
<path d="M7.49473 64C5.43368 64 3.66992 63.3409 2.20345 62.0227C0.736982 60.7045 0.00249824 59.118 0 57.2631V20.2105C0 18.3579 0.734484 16.7725 2.20345 15.4543C3.67242 14.1361 5.43618 13.4759 7.49473 13.4737H22.4842V6.73684C22.4842 4.88421 23.2187 3.29881 24.6876 1.98063C26.1566 0.662456 27.9204 0.00224561 29.9789 0H44.9684C47.0294 0 48.7945 0.66021 50.2634 1.98063C51.7324 3.30105 52.4656 4.88645 52.4631 6.73684V13.4737H67.4526C69.5136 13.4737 71.2786 14.1339 72.7476 15.4543C74.2166 16.7747 74.9498 18.3601 74.9473 20.2105V57.2631C74.9473 59.1158 74.2141 60.7023 72.7476 62.0227C71.2811 63.3431 69.5161 64.0022 67.4526 64H7.49473ZM29.9789 13.4737H44.9684V6.73684H29.9789V13.4737Z" fill="#F8F8F8"/>
</svg>
