<svg width="130" height="130" viewBox="0 0 130 130" fill="none" xmlns="http://www.w3.org/2000/svg">
<path d="M87.75 58.4123C90.4583 58.4123 92.7615 57.4668 94.6595 55.576C96.5575 53.6852 97.5043 51.3855 97.5 48.6769C97.5 45.9726 96.5532 43.6751 94.6595 41.7842C92.7658 39.8934 90.4627 38.9458 87.75 38.9415C85.0417 38.9415 82.7407 39.8891 80.847 41.7842C78.9533 43.6794 78.0043 45.9769 78 48.6769C78 51.3811 78.949 53.6809 80.847 55.576C82.745 57.4712 85.046 58.4166 87.75 58.4123ZM42.25 58.4123C44.9583 58.4123 47.2615 57.4668 49.1595 55.576C51.0575 53.6852 52.0043 51.3855 52 48.6769C52 45.9726 51.0532 43.6751 49.1595 41.7842C47.2658 39.8934 44.9627 38.9458 42.25 38.9415C39.5417 38.9415 37.2407 39.8891 35.347 41.7842C33.4533 43.6794 32.5043 45.9769 32.5 48.6769C32.5 51.3811 33.449 53.6809 35.347 55.576C37.245 57.4712 39.546 58.4166 42.25 58.4123ZM65 100.599C72.3667 100.599 79.0573 98.5177 85.072 94.3553C91.0867 90.1928 95.446 84.7021 98.15 77.883H31.85C34.5583 84.6978 38.9198 90.1885 44.9345 94.3553C50.9492 98.522 57.6377 100.603 65 100.599ZM65 129.805C56.0083 129.805 47.5583 128.1 39.65 124.691C31.7417 121.281 24.8625 116.658 19.0125 110.821C13.1625 104.98 8.53233 98.111 5.122 90.2145C1.71167 82.318 0.00433333 73.8807 0 64.9025C0 55.9243 1.70733 47.487 5.122 39.5905C8.53667 31.6941 13.1668 24.8252 19.0125 18.984C24.8625 13.1428 31.7417 8.51954 39.65 5.11432C47.5583 1.7091 56.0083 0.00432683 65 0C73.9917 0 82.4417 1.70477 90.35 5.11432C98.2583 8.52386 105.137 13.1471 110.987 18.984C116.837 24.8252 121.47 31.6941 124.884 39.5905C128.299 47.487 130.004 55.9243 130 64.9025C130 73.8807 128.293 82.318 124.878 90.2145C121.463 98.111 116.833 104.98 110.987 110.821C105.137 116.662 98.2583 121.288 90.35 124.697C82.4417 128.107 73.9917 129.809 65 129.805Z" fill="#F8F8F8"/>
</svg>
