<svg width="31" height="31" viewBox="0 0 31 31" fill="none" xmlns="http://www.w3.org/2000/svg">
<path d="M12.1094 4.35938H6.78125C6.13893 4.35938 5.52292 4.61454 5.06873 5.06873C4.61454 5.52292 4.35938 6.13893 4.35938 6.78125V12.1094C4.35938 12.7517 4.61454 13.3677 5.06873 13.8219C5.52292 14.2761 6.13893 14.5312 6.78125 14.5312H12.1094C12.7517 14.5312 13.3677 14.2761 13.8219 13.8219C14.2761 13.3677 14.5312 12.7517 14.5312 12.1094V6.78125C14.5312 6.13893 14.2761 5.52292 13.8219 5.06873C13.3677 4.61454 12.7517 4.35938 12.1094 4.35938ZM11.625 11.625H7.26562V7.26562H11.625V11.625ZM24.2188 4.35938H18.8906C18.2483 4.35938 17.6323 4.61454 17.1781 5.06873C16.7239 5.52292 16.4688 6.13893 16.4688 6.78125V12.1094C16.4688 12.7517 16.7239 13.3677 17.1781 13.8219C17.6323 14.2761 18.2483 14.5312 18.8906 14.5312H24.2188C24.8611 14.5312 25.4771 14.2761 25.9313 13.8219C26.3855 13.3677 26.6406 12.7517 26.6406 12.1094V6.78125C26.6406 6.13893 26.3855 5.52292 25.9313 5.06873C25.4771 4.61454 24.8611 4.35938 24.2188 4.35938ZM23.7344 11.625H19.375V7.26562H23.7344V11.625ZM12.1094 16.4688H6.78125C6.13893 16.4688 5.52292 16.7239 5.06873 17.1781C4.61454 17.6323 4.35938 18.2483 4.35938 18.8906V24.2188C4.35938 24.8611 4.61454 25.4771 5.06873 25.9313C5.52292 26.3855 6.13893 26.6406 6.78125 26.6406H12.1094C12.7517 26.6406 13.3677 26.3855 13.8219 25.9313C14.2761 25.4771 14.5312 24.8611 14.5312 24.2188V18.8906C14.5312 18.2483 14.2761 17.6323 13.8219 17.1781C13.3677 16.7239 12.7517 16.4688 12.1094 16.4688ZM11.625 23.7344H7.26562V19.375H11.625V23.7344ZM24.2188 16.4688H18.8906C18.2483 16.4688 17.6323 16.7239 17.1781 17.1781C16.7239 17.6323 16.4688 18.2483 16.4688 18.8906V24.2188C16.4688 24.8611 16.7239 25.4771 17.1781 25.9313C17.6323 26.3855 18.2483 26.6406 18.8906 26.6406H24.2188C24.8611 26.6406 25.4771 26.3855 25.9313 25.9313C26.3855 25.4771 26.6406 24.8611 26.6406 24.2188V18.8906C26.6406 18.2483 26.3855 17.6323 25.9313 17.1781C25.4771 16.7239 24.8611 16.4688 24.2188 16.4688ZM23.7344 23.7344H19.375V19.375H23.7344V23.7344Z" fill="black"/>
</svg>
