<svg width="58" height="54" viewBox="0 0 58 54" fill="none" xmlns="http://www.w3.org/2000/svg">
<path d="M29 0C30.0875 0 31.1605 0.0537974 32.219 0.164081C32.5975 0.202938 32.9641 0.31057 33.2978 0.480835C33.6315 0.651101 33.9258 0.880663 34.1639 1.15642C34.4019 1.43217 34.5791 1.74871 34.6852 2.08797C34.7914 2.42723 34.8245 2.78256 34.7826 3.13368C34.7407 3.4848 34.6247 3.82482 34.4411 4.13435C34.2575 4.44387 34.01 4.71682 33.7127 4.93762C33.4154 5.15842 33.0742 5.32275 32.7084 5.42122C32.3426 5.51969 31.9595 5.55037 31.581 5.51151C26.8019 5.01562 21.9748 5.90945 17.7674 8.06936C13.5599 10.2293 10.18 13.5485 8.09525 17.568C6.01048 21.5874 5.32383 26.1085 6.13029 30.5057C6.93674 34.9029 9.19645 38.9591 12.5968 42.1131C15.9972 45.2671 20.3703 47.363 25.111 48.111C29.8518 48.8591 34.726 48.2222 39.0595 46.2885C43.393 44.3548 46.9716 41.2198 49.3002 37.3172C51.6289 33.4147 52.5925 28.9373 52.0579 24.5046C52.016 24.1535 52.0491 23.7981 52.1552 23.4589C52.2614 23.1196 52.4386 22.8031 52.6766 22.5273C53.1574 21.9704 53.857 21.6135 54.6215 21.535C55.386 21.4565 56.1528 21.6629 56.7532 22.1089C57.0505 22.3297 57.298 22.6026 57.4816 22.9121C57.6652 23.2217 57.7812 23.5617 57.8231 23.9128C57.9391 24.8946 58 25.8899 58 26.8986C58 41.7546 45.0167 53.7971 29 53.7971C12.9833 53.7971 0 41.7546 0 26.8986C0 12.0425 12.9833 0 29 0ZM28.9072 15.8083C29.0983 16.4988 28.9861 17.2315 28.5951 17.8453C28.2041 18.4591 27.5664 18.9039 26.8221 19.0818C24.7772 19.5787 22.9971 20.7487 21.8139 22.3734C20.6307 23.9982 20.1253 25.9668 20.3919 27.9118C20.6586 29.8568 21.6791 31.6454 23.263 32.9438C24.847 34.2423 26.8861 34.9618 29 34.9681C30.9291 34.9679 32.8036 34.3735 34.3289 33.278C35.8543 32.1826 36.9442 30.6482 37.4274 28.9159C37.633 28.2391 38.1161 27.6637 38.7734 27.3133C39.4307 26.9628 40.2099 26.865 40.944 27.0408C41.678 27.2167 42.3087 27.6522 42.7008 28.2541C43.0929 28.8559 43.2153 29.5763 43.0418 30.2609C42.1522 33.424 40.0514 36.1784 37.1321 38.0097C34.2127 39.841 30.6743 40.6239 27.1781 40.212C23.6819 39.8001 20.4669 38.2217 18.1337 35.7717C15.8006 33.3216 14.5089 30.1675 14.5 26.8986C14.5005 23.9168 15.5689 21.0196 17.5373 18.6622C19.5057 16.3048 22.2626 14.6206 25.375 13.8743C25.7438 13.7861 26.1278 13.7662 26.5049 13.8157C26.8821 13.8651 27.245 13.983 27.573 14.1626C27.901 14.3422 28.1877 14.58 28.4166 14.8624C28.6455 15.1447 28.8122 15.4661 28.9072 15.8083ZM47.8616 0.341612C48.3909 0.545177 48.8434 0.889635 49.1618 1.3315C49.4803 1.77337 49.6505 2.29284 49.6509 2.82435V7.74678H54.955C55.5285 7.7469 56.089 7.90471 56.5658 8.20029C57.0426 8.49586 57.4142 8.91592 57.6337 9.40735C57.8531 9.89879 57.9105 10.4395 57.7987 10.9612C57.6868 11.483 57.4107 11.9622 57.0053 12.3384L46.748 21.8416C46.2043 22.3461 45.4668 22.6296 44.6977 22.6298H37.7L32.3988 27.5495C31.8546 28.0542 31.1166 28.3378 30.3471 28.3378C29.5775 28.3378 28.8395 28.0542 28.2953 27.5495C27.7511 27.0448 27.4454 26.3602 27.4454 25.6464C27.4454 24.9326 27.7511 24.2481 28.2953 23.7433L33.5994 18.829V12.3357C33.5996 11.6223 33.9052 10.9383 34.4491 10.4339L44.7006 0.92262C45.1062 0.546222 45.623 0.289854 46.1856 0.185953C46.7483 0.0820524 47.3316 0.135287 47.8616 0.338922M43.8509 9.31497L39.3994 13.4493V17.2527H43.5L47.9544 13.1238H46.7509C45.9818 13.1238 45.2441 12.8404 44.7003 12.336C44.1564 11.8315 43.8509 11.1473 43.8509 10.4339V9.31497Z" fill="#F8F8F8"/>
</svg>
