<svg width="20" height="20" viewBox="0 0 20 20" fill="none" xmlns="http://www.w3.org/2000/svg">
<g clip-path="url(#clip0_5_43)">
<path d="M19.3924 7.84904C18.6401 6.61714 17.6911 5.51675 16.5832 4.59154L18.9166 2.25821C19.0684 2.10104 19.1524 1.89054 19.1505 1.67204C19.1486 1.45354 19.0609 1.24453 18.9064 1.09003C18.7519 0.935518 18.5429 0.847877 18.3244 0.845979C18.1059 0.84408 17.8954 0.928075 17.7382 1.07987L15.2007 3.62071C13.6277 2.68639 11.8294 2.19943 9.99989 2.21237C4.84072 2.21237 1.90072 5.74404 0.60739 7.84904C0.20783 8.4953 -0.0038147 9.24008 -0.0038147 9.99987C-0.0038147 10.7597 0.20783 11.5045 0.60739 12.1507C1.35969 13.3826 2.30863 14.483 3.41656 15.4082L1.08322 17.7415C1.00363 17.8184 0.940147 17.9104 0.896472 18.012C0.852798 18.1137 0.82981 18.2231 0.828848 18.3337C0.827887 18.4444 0.848971 18.5541 0.890872 18.6565C0.932773 18.7589 0.99465 18.852 1.07289 18.9302C1.15114 19.0084 1.24418 19.0703 1.3466 19.1122C1.44901 19.1541 1.55874 19.1752 1.66939 19.1742C1.78004 19.1733 1.88939 19.1503 1.99106 19.1066C2.09273 19.063 2.18468 18.9995 2.26156 18.9199L4.80489 16.3765C6.37595 17.3107 8.17212 17.7985 9.99989 17.7874C15.1591 17.7874 18.0991 14.2557 19.3924 12.1507C19.792 11.5045 20.0036 10.7597 20.0036 9.99987C20.0036 9.24008 19.792 8.4953 19.3924 7.84904ZM2.02739 11.2782C1.79 10.8941 1.66427 10.4514 1.66427 9.99987C1.66427 9.54831 1.79 9.10567 2.02739 8.72154C3.13906 6.91654 5.65156 3.87904 9.99989 3.87904C11.3835 3.87129 12.7476 4.20474 13.9716 4.84987L12.2941 6.52737C11.494 5.99621 10.5348 5.7582 9.57925 5.85375C8.62369 5.94929 7.73061 6.37249 7.05156 7.05154C6.37251 7.7306 5.9493 8.62367 5.85376 9.57923C5.75822 10.5348 5.99622 11.494 6.52739 12.294L4.60239 14.219C3.58164 13.3938 2.71059 12.399 2.02739 11.2782ZM12.4999 9.99987C12.4999 10.6629 12.2365 11.2988 11.7677 11.7676C11.2988 12.2365 10.6629 12.4999 9.99989 12.4999C9.62865 12.4984 9.26256 12.413 8.92906 12.2499L12.2499 8.92904C12.413 9.26254 12.4985 9.62863 12.4999 9.99987ZM7.49989 9.99987C7.49989 9.33683 7.76328 8.70095 8.23212 8.23211C8.70096 7.76327 9.33685 7.49987 9.99989 7.49987C10.3711 7.50131 10.7372 7.58678 11.0707 7.74987L7.74989 11.0707C7.5868 10.7372 7.50133 10.3711 7.49989 9.99987ZM17.9724 11.2782C16.8607 13.0832 14.3482 16.1207 9.99989 16.1207C8.61633 16.1285 7.25219 15.795 6.02822 15.1499L7.70572 13.4724C8.50578 14.0035 9.46497 14.2415 10.4205 14.146C11.3761 14.0505 12.2692 13.6273 12.9482 12.9482C13.6273 12.2692 14.0505 11.3761 14.146 10.4205C14.2416 9.46495 14.0036 8.50576 13.4724 7.70571L15.3974 5.78071C16.4181 6.60594 17.2892 7.60075 17.9724 8.72154C18.2098 9.10567 18.3355 9.54831 18.3355 9.99987C18.3355 10.4514 18.2098 10.8941 17.9724 11.2782Z" fill="#E1E1E1"/>
</g>
<defs>
<clipPath id="clip0_5_43">
<rect width="20" height="20" fill="white"/>
</clipPath>
</defs>
</svg>
