<svg width="76" height="44" viewBox="0 0 76 44" fill="none" xmlns="http://www.w3.org/2000/svg">
<path d="M20.2667 0C11.9067 0 5.06667 6.50222 5.06667 14.4494C5.06667 19.2273 7.54173 23.4802 11.3215 26.1149C4.64107 29.2648 0 35.7959 0 43.3481H5.06667C5.06667 35.3432 11.8459 28.8988 20.2667 28.8988C28.6875 28.8988 35.4667 35.3432 35.4667 43.3481H40.5333C40.5333 35.3432 47.3125 28.8988 55.7333 28.8988C64.1541 28.8988 70.9333 35.3432 70.9333 43.3481H76C76 35.7935 71.3589 29.2648 64.6785 26.1149C66.6127 24.775 68.1872 23.0204 69.274 20.9935C70.3608 18.9665 70.9293 16.7244 70.9333 14.4494C70.9333 6.50222 64.0933 0 55.7333 0C47.3733 0 40.5333 6.50222 40.5333 14.4494C40.5333 19.2273 43.0084 23.4802 46.7881 26.1149C43.0868 27.8448 40.023 30.5994 38 34.0163C35.977 30.5994 32.9132 27.8448 29.2119 26.1149C31.1461 24.775 32.7206 23.0204 33.8074 20.9935C34.8942 18.9665 35.4627 16.7244 35.4667 14.4494C35.4667 6.50222 28.6267 0 20.2667 0ZM20.2667 4.81646C25.8983 4.81646 30.4 9.09589 30.4 14.4494C30.4 19.8029 25.8983 24.0823 20.2667 24.0823C14.6351 24.0823 10.1333 19.8029 10.1333 14.4494C10.1333 9.09589 14.6351 4.81646 20.2667 4.81646ZM55.7333 4.81646C61.3649 4.81646 65.8667 9.09589 65.8667 14.4494C65.8667 19.8029 61.3649 24.0823 55.7333 24.0823C50.1017 24.0823 45.6 19.8029 45.6 14.4494C45.6 9.09589 50.1017 4.81646 55.7333 4.81646Z" fill="#F8F8F8"/>
</svg>
