<svg width="36" height="42" viewBox="0 0 36 42" fill="none" xmlns="http://www.w3.org/2000/svg">
<path d="M21.4773 0H2.45455C1.80356 0 1.17924 0.237053 0.718919 0.65901C0.258603 1.08097 0 1.65326 0 2.25V39.75C0 40.3467 0.258603 40.919 0.718919 41.341C1.17924 41.7629 1.80356 42 2.45455 42H21.4773V0ZM33.5455 0H27.6136V42H33.5455C34.1964 42 34.8208 41.7629 35.2811 41.341C35.7414 40.919 36 40.3467 36 39.75V2.25C36 1.65326 35.7414 1.08097 35.2811 0.65901C34.8208 0.237053 34.1964 0 33.5455 0Z" fill="#55F4BB"/>
</svg>
