<svg width="73" height="102" viewBox="0 0 73 102" fill="none" xmlns="http://www.w3.org/2000/svg">
<path d="M36.5 71.248C48.0027 71.248 57.3571 62.113 57.3571 50.8914V20.3566C57.3571 9.12992 48.0027 0 36.5 0C24.9973 0 15.6429 9.12992 15.6429 20.3566V50.8914C15.6429 62.113 24.9973 71.248 36.5 71.248ZM73 50.8914V40.7131C73 39.3634 72.4506 38.069 71.4728 37.1146C70.4949 36.1602 69.1686 35.624 67.7857 35.624C66.4028 35.624 65.0765 36.1602 64.0986 37.1146C63.1208 38.069 62.5714 39.3634 62.5714 40.7131V50.8914C62.5714 64.9222 50.8758 76.3371 36.5 76.3371C22.1242 76.3371 10.4286 64.9222 10.4286 50.8914V40.7131C10.4286 39.3634 9.87921 38.069 8.90134 37.1146C7.92347 36.1602 6.5972 35.624 5.21428 35.624C3.83137 35.624 2.5051 36.1602 1.52723 37.1146C0.549362 38.069 0 39.3634 0 40.7131V50.8914C0 68.8052 13.6249 83.6248 31.2857 86.1083V91.6045H15.6429C14.2599 91.6045 12.9337 92.1407 11.9558 93.0951C10.9779 94.0495 10.4286 95.344 10.4286 96.6937C10.4286 98.0434 10.9779 99.3379 11.9558 100.292C12.9337 101.247 14.2599 101.783 15.6429 101.783H57.3571C58.74 101.783 60.0663 101.247 61.0442 100.292C62.0221 99.3379 62.5714 98.0434 62.5714 96.6937C62.5714 95.344 62.0221 94.0495 61.0442 93.0951C60.0663 92.1407 58.74 91.6045 57.3571 91.6045H41.7143V86.1083C59.3751 83.6248 73 68.8052 73 50.8914Z" fill="#49EEB3"/>
</svg>
