<svg width="52" height="53" viewBox="0 0 52 53" fill="none" xmlns="http://www.w3.org/2000/svg">
<path d="M47.76 26.5753C48.0385 21.6854 46.87 16.8237 44.4095 12.6353C41.9491 8.44683 38.313 5.12967 33.9838 3.12393C29.6546 1.11819 24.8369 0.518683 20.17 1.40496C15.5031 2.29125 11.2075 4.62141 7.85329 8.08628C4.49908 11.5512 2.24478 15.9869 1.38951 20.805C0.534235 25.6232 1.11842 30.5958 3.06456 35.0633C5.01069 39.5307 8.22677 43.2817 12.2861 45.8185C16.3454 48.3553 21.056 49.5581 25.7928 49.2672M34.8007 43.9431H50.3987M42.5997 35.8925V51.9937M16.603 19.7913H16.629M32.201 19.7913H32.227" stroke="#F8F8F8" stroke-width="2" stroke-linecap="round" stroke-linejoin="round"/>
<path d="M17.9029 33.2089C19.6135 34.9264 21.9584 35.8924 24.4021 35.8924C26.8457 35.8924 29.1906 34.9264 30.9012 33.2089" stroke="#F8F8F8" stroke-width="2" stroke-linecap="round" stroke-linejoin="round"/>
</svg>
