<svg width="123" height="118" viewBox="0 0 123 118" fill="none" xmlns="http://www.w3.org/2000/svg">
<path d="M12.8279 94.3316C16.23 94.3316 19.4928 95.5739 21.8985 97.7852C24.3042 99.9966 25.6557 102.996 25.6557 106.123C25.6557 109.25 24.3042 112.25 21.8985 114.461C19.4928 116.672 16.23 117.914 12.8279 117.914C9.4257 117.914 6.16289 116.672 3.75719 114.461C1.3515 112.25 0 109.25 0 106.123C0 102.996 1.3515 99.9966 3.75719 97.7852C6.16289 95.5739 9.4257 94.3316 12.8279 94.3316ZM48.1045 76.6444C52.3572 76.6444 56.4357 78.1973 59.4428 80.9615C62.45 83.7256 64.1393 87.4746 64.1393 91.3837C64.1393 95.2928 62.45 99.0418 59.4428 101.806C56.4357 104.57 52.3572 106.123 48.1045 106.123C43.8518 106.123 39.7733 104.57 36.7662 101.806C33.759 99.0418 32.0697 95.2928 32.0697 91.3837C32.0697 87.4746 33.759 83.7256 36.7662 80.9615C39.7733 78.1973 43.8518 76.6444 48.1045 76.6444ZM64.1393 0C72.2978 0.001476 80.1952 2.64338 86.4463 7.46231C92.6974 12.2812 96.9031 18.9695 98.3256 26.3539H98.8515C105.256 26.3539 111.398 28.6925 115.927 32.8554C120.456 37.0182 123 42.6642 123 48.5513C123 54.4384 120.456 60.0844 115.927 64.2472C111.398 68.41 105.256 70.7487 98.8515 70.7487H29.4271C23.0226 70.7487 16.8803 68.41 12.3516 64.2472C7.82287 60.0844 5.27867 54.4384 5.27867 48.5513C5.27867 42.6642 7.82287 37.0182 12.3516 32.8554C16.8803 28.6925 23.0226 26.3539 29.4271 26.3539H29.9531C31.3756 18.9695 35.5813 12.2812 41.8324 7.46231C48.0835 2.64338 55.9809 0.001476 64.1393 0Z" fill="#F8F8F8"/>
</svg>
