<svg width="125" height="100" viewBox="0 0 125 100" fill="none" xmlns="http://www.w3.org/2000/svg">
<path d="M41.6076 41.657C41.6076 40.552 42.1555 39.4922 43.1308 38.7107C44.1061 37.9293 45.4288 37.4904 46.8081 37.4904H78.0111C79.3904 37.4904 80.7131 37.9293 81.6884 38.7107C82.6637 39.4922 83.2116 40.552 83.2116 41.657C83.2116 42.7621 82.6637 43.8219 81.6884 44.6033C80.7131 45.3847 79.3904 45.8237 78.0111 45.8237H46.8081C45.4288 45.8237 44.1061 45.3847 43.1308 44.6033C42.1555 43.8219 41.6076 42.7621 41.6076 41.657ZM46.8081 54.157C45.4288 54.157 44.1061 54.596 43.1308 55.3774C42.1555 56.1588 41.6076 57.2186 41.6076 58.3237C41.6076 59.4288 42.1555 60.4886 43.1308 61.27C44.1061 62.0514 45.4288 62.4904 46.8081 62.4904H67.6101C68.9894 62.4904 70.3121 62.0514 71.2874 61.27C72.2627 60.4886 72.8106 59.4288 72.8106 58.3237C72.8106 57.2186 72.2627 56.1588 71.2874 55.3774C70.3121 54.596 68.9894 54.157 67.6101 54.157H46.8081ZM0.00359111 49.9904C0.006245 38.9824 4.54285 28.2828 12.9097 19.5514C21.2765 10.82 33.0058 4.54484 46.2781 1.69936C59.5504 -1.14612 73.6237 -0.402842 86.315 3.81388C99.0062 8.0306 109.606 15.4851 116.47 25.0209C123.334 34.5567 126.078 45.6408 124.277 56.5538C122.476 67.4667 116.231 77.5986 106.51 85.3775C96.7885 93.1564 84.135 98.1476 70.512 99.5768C56.8891 101.006 43.0582 98.7933 31.165 93.282L6.84745 99.782C5.94904 100.022 4.98576 100.062 4.06159 99.8953C3.13741 99.7292 2.28744 99.3639 1.60339 98.839C0.919351 98.3141 0.427218 97.6495 0.180108 96.9169C-0.067003 96.1843 -0.0597062 95.4115 0.201211 94.682L7.60672 73.9237C2.60401 66.5841 -0.0107951 58.3531 0.00359111 49.9904ZM62.4096 8.32369C53.2274 8.32323 44.2087 10.2706 36.2704 13.9679C28.332 17.6652 21.757 22.9806 17.2136 29.3737C12.6703 35.7668 10.3206 43.0098 10.4034 50.3663C10.4863 57.7228 12.9987 64.9306 17.6853 71.257C18.0459 71.7457 18.278 72.2883 18.3674 72.8515C18.4569 73.4147 18.4017 73.9865 18.2053 74.532L12.9112 89.3654L30.1561 84.7654C30.8885 84.5695 31.6661 84.5068 32.4325 84.5818C33.1989 84.6567 33.9348 84.8675 34.5869 85.1987C41.4024 88.6545 49.1277 90.7928 57.1522 91.4445C65.1767 92.0963 73.2804 91.2437 80.8229 88.9542C88.3653 86.6646 95.1397 83.0008 100.61 78.2524C106.081 73.504 110.099 67.8011 112.345 61.5945C114.591 55.388 115.005 48.8479 113.553 42.4912C112.102 36.1345 108.824 30.1354 103.981 24.9682C99.1371 19.801 92.8597 15.6073 85.6448 12.7186C78.4299 9.8298 70.4752 8.3252 62.4096 8.32369Z" fill="#F8F8F8"/>
</svg>
