<svg width="49" height="48" viewBox="0 0 49 48" fill="none" xmlns="http://www.w3.org/2000/svg">
<g clip-path="url(#clip0_57_1312)">
<path d="M6.125 8.25C6.125 6.06196 7.0123 3.96354 8.59171 2.41637C10.1711 0.869194 12.3133 1.42067e-07 14.5469 1.42067e-07C17.5573 1.42067e-07 20.2829 1.26 22.4175 3.696C23.2383 4.65 23.9396 5.7 24.5 6.822C25.0604 5.697 25.7587 4.647 26.5825 3.69C28.714 1.26 31.4396 1.42067e-07 34.4531 1.42067e-07C35.8947 -0.00026189 37.3122 0.361954 38.5699 1.05197C39.8277 1.742 40.8835 2.73672 41.6365 3.94093C42.3894 5.14513 42.8142 6.5185 42.8702 7.92958C42.9262 9.34065 42.6115 10.7422 41.9562 12H43.6406C46.599 12 49 14.352 49 17.25V23.25C49 25.344 47.7474 27.153 45.9375 27.996V42.75C45.9375 44.1424 45.3729 45.4777 44.3678 46.4623C43.3627 47.4469 41.9995 48 40.5781 48H8.42188C7.00048 48 5.6373 47.4469 4.63222 46.4623C3.62715 45.4777 3.0625 44.1424 3.0625 42.75V27.996C1.25256 27.15 0 25.344 0 23.25V17.25C0 14.352 2.401 12 5.35938 12H7.04375C6.45575 10.875 6.125 9.6 6.125 8.25ZM22.2031 28.5H7.65625V42.75C7.65625 43.164 7.99925 43.5 8.42188 43.5H22.2031V28.5ZM26.7969 28.5V43.5H40.5781C40.7812 43.5 40.9759 43.421 41.1195 43.2803C41.2631 43.1397 41.3438 42.9489 41.3438 42.75V28.5H26.7969ZM26.7969 16.5V24H43.6406C43.8437 24 44.0384 23.921 44.182 23.7803C44.3256 23.6397 44.4062 23.4489 44.4062 23.25V17.25C44.4062 17.0511 44.3256 16.8603 44.182 16.7197C44.0384 16.579 43.8437 16.5 43.6406 16.5H26.7969ZM5.35938 16.5C5.15632 16.5 4.96158 16.579 4.818 16.7197C4.67441 16.8603 4.59375 17.0511 4.59375 17.25V23.25C4.59375 23.664 4.93675 24 5.35938 24H22.2031V16.5H5.35938ZM14.5469 4.5C13.5316 4.5 12.5579 4.89509 11.84 5.59835C11.1221 6.30161 10.7188 7.25544 10.7188 8.25C10.7188 9.24456 11.1221 10.1984 11.84 10.9017C12.5579 11.6049 13.5316 12 14.5469 12H21.6182C20.9046 9.546 19.9583 7.797 18.9293 6.621C17.6124 5.115 16.1271 4.5 14.5469 4.5ZM27.3818 12H34.4531C35.4684 12 36.4421 11.6049 37.16 10.9017C37.8779 10.1984 38.2812 9.24456 38.2812 8.25C38.2812 7.25544 37.8779 6.30161 37.16 5.59835C36.4421 4.89509 35.4684 4.5 34.4531 4.5C32.8729 4.5 31.3906 5.115 30.0737 6.621C29.0417 7.797 28.0954 9.546 27.3818 12Z" fill="#55F4BB"/>
</g>
<defs>
<clipPath id="clip0_57_1312">
<rect width="49" height="48" fill="white"/>
</clipPath>
</defs>
</svg>
