<svg width="26" height="22" viewBox="0 0 26 22" fill="none" xmlns="http://www.w3.org/2000/svg">
<path fill-rule="evenodd" clip-rule="evenodd" d="M1.42191 0.261036C2.07397 -0.0524833 2.83135 -0.0841089 3.50605 0.168984L3.64929 0.227577L24.1266 9.31596C25.0936 9.74515 25.5157 10.8469 25.0694 11.7768C24.8964 12.1372 24.6084 12.4336 24.249 12.624L24.1266 12.6835L3.64929 21.7718C2.35994 22.3441 0.832306 21.8029 0.237221 20.563C-0.068283 19.9265 -0.0774977 19.1975 0.20664 18.5569L0.272015 18.4211L4.13082 10.9997L0.272015 3.57833C-0.322698 2.43455 0.0909894 1.05941 1.18904 0.387751L1.30506 0.320816L1.42191 0.261036ZM21.2859 11.2205L6.41008 12.144L2.5718 19.5268L21.2859 11.2205ZM2.5718 2.47257L6.41073 9.85504L21.2866 10.7779L2.5718 2.47257Z" fill="white"/>
</svg>
