<svg width="72" height="52" viewBox="0 0 72 52" fill="none" xmlns="http://www.w3.org/2000/svg">
<path d="M6.07987 16.5041C5.78083 16.2168 5.41842 15.9882 5.0156 15.8329C4.61278 15.6775 4.17832 15.5987 3.73972 15.6015C2.26364 15.6015 1.14757 16.214 0.427525 17.4711C-0.292519 18.7282 -0.112507 19.9209 1.03956 21.0491C5.28782 24.466 7.98798 26.8836 9.14005 28.3019C10.6161 30.107 11.3362 32.7503 11.3362 36.1671C11.3362 40.3898 13.1363 43.5166 16.7365 45.6763C18.7526 47.0946 20.9488 48.1583 23.3969 48.8675V36.3283C23.3969 33.2982 22.2088 30.7839 19.9407 28.7532M52.0546 28.9143C49.8225 30.9129 48.5984 33.3949 48.5984 36.3283V48.9964C52.0546 47.9005 54.9348 46.192 57.311 43.9356C59.6511 41.6792 60.8392 39.1971 60.8392 36.1671C60.8392 32.5246 61.5232 29.9136 62.8913 28.3019C63.2153 27.7861 63.8273 27.1414 64.7994 26.3356C65.6275 25.5297 66.4915 24.7561 67.3556 24.0469C68.1836 23.37 69.0117 22.6609 69.8037 21.9517L70.9918 21.0491C71.3136 20.7753 71.5692 20.4451 71.7426 20.0791C71.916 19.7132 72.0036 19.3192 71.9998 18.9216C71.9998 18.0191 71.6758 17.2132 70.9918 16.5685C70.3077 15.9238 69.4797 15.6015 68.3996 15.6015C67.3196 15.6015 66.5995 15.8916 65.9155 16.5041M35.9977 51.5752C38.4818 51.5752 40.894 51.2851 43.1981 50.6726V39.1649C43.1981 37.2631 42.5501 35.7803 41.074 34.362C39.5979 32.9437 37.9058 32.2345 35.9977 32.2345C34.0896 32.2345 32.3975 32.8792 31.0294 34.2008C29.5893 35.4579 28.7972 36.9407 28.7972 38.8748V50.6726C31.1014 51.2851 33.5135 51.5752 35.9977 51.5752ZM25.197 14.5055C25.197 17.181 22.7849 19.3407 19.7967 19.3407C16.8085 19.3407 14.3964 17.181 14.3964 14.5055C14.3964 11.8301 16.8085 9.67035 19.7967 9.67035C22.7849 9.67035 25.197 11.8301 25.197 14.5055ZM57.599 14.5055C57.599 17.181 55.1868 19.3407 52.1986 19.3407C49.2105 19.3407 46.7983 17.181 46.7983 14.5055C46.7983 11.8301 49.2105 9.67035 52.1986 9.67035C55.1868 9.67035 57.599 11.8301 57.599 14.5055ZM41.398 4.83517C41.398 7.51064 38.9858 9.67035 35.9977 9.67035C33.0095 9.67035 30.5973 7.51064 30.5973 4.83517C30.5973 2.15971 33.0095 0 35.9977 0C38.9858 0 41.398 2.15971 41.398 4.83517ZM41.398 22.5641C41.398 25.2396 38.9858 27.3993 35.9977 27.3993C33.0095 27.3993 30.5973 25.2396 30.5973 22.5641C30.5973 19.8887 33.0095 17.729 35.9977 17.729C38.9858 17.729 41.398 19.8887 41.398 22.5641Z" fill="#F8F8F8"/>
</svg>
