<svg width="113" height="118" viewBox="0 0 113 118" fill="none" xmlns="http://www.w3.org/2000/svg">
<path d="M112.87 16.6739C112.87 12.2517 111.113 8.01064 107.986 4.88368C104.859 1.75671 100.618 0 96.1957 0H16.6739C12.2517 0 8.01064 1.75671 4.88368 4.88368C1.75671 8.01064 0 12.2517 0 16.6739V96.1957C0 100.618 1.75671 104.859 4.88368 107.986C8.01064 111.113 12.2517 112.87 16.6739 112.87H47.4463L47.4565 109.022V105.174H16.6739C14.2927 105.174 12.0091 104.228 10.3253 102.544C8.64158 100.861 7.69566 98.5769 7.69566 96.1957V33.3632H105.174V96.1957C105.174 98.5769 104.228 100.861 102.544 102.544C100.861 104.228 98.5769 105.174 96.1957 105.174H65.4131V112.87H96.1957C100.618 112.87 104.859 111.113 107.986 107.986C111.113 104.859 112.87 100.618 112.87 96.1957V16.6739ZM16.6739 7.69565H96.1957C101.152 7.69565 105.174 11.7179 105.174 16.6739V25.6676H7.69566V16.6739C7.69566 11.7179 11.7179 7.69565 16.6739 7.69565ZM62.8479 52.587C62.8479 54.2878 62.1722 55.919 60.9695 57.1217C59.7668 58.3244 58.1357 59 56.4348 59C54.734 59 53.1028 58.3244 51.9001 57.1217C50.6974 55.919 50.0218 54.2878 50.0218 52.587C50.0218 50.8861 50.6974 49.2549 51.9001 48.0523C53.1028 46.8496 54.734 46.1739 56.4348 46.1739C58.1357 46.1739 59.7668 46.8496 60.9695 48.0523C62.1722 49.2549 62.8479 50.8861 62.8479 52.587ZM65.4233 88.8079C65.7965 89.1674 66.2385 89.4479 66.7228 89.6324C67.207 89.817 67.7236 89.9018 68.2414 89.8818C68.7593 89.8618 69.2678 89.7375 69.7364 89.5161C70.2049 89.2948 70.624 88.9811 70.9684 88.5939C71.3128 88.2066 71.5754 87.7538 71.7404 87.2625C71.9055 86.7713 71.9697 86.2518 71.929 85.7351C71.8884 85.2185 71.7438 84.7154 71.504 84.256C71.2641 83.7966 70.9339 83.3904 70.5332 83.0618L58.9898 72.8009C58.2856 72.1756 57.3766 71.8302 56.4348 71.8302C55.4931 71.8302 54.584 72.1756 53.8799 72.8009L42.3364 83.0618C41.9357 83.3904 41.6055 83.7966 41.3656 84.256C41.1258 84.7154 40.9812 85.2185 40.9406 85.7351C40.9 86.2518 40.9641 86.7713 41.1292 87.2625C41.2942 87.7538 41.5569 88.2066 41.9012 88.5939C42.2456 88.9811 42.6647 89.2948 43.1333 89.5161C43.6019 89.7375 44.1103 89.8618 44.6282 89.8818C45.146 89.9018 45.6626 89.817 46.1468 89.6324C46.6311 89.4479 47.0731 89.1674 47.4463 88.8079L52.587 84.2418V114.152C52.587 115.173 52.9924 116.151 53.714 116.873C54.4356 117.595 55.4143 118 56.4348 118C57.4553 118 58.434 117.595 59.1556 116.873C59.8772 116.151 60.2826 115.173 60.2826 114.152V84.2418L65.4233 88.8079Z" fill="white"/>
</svg>
