<svg width="24" height="24" viewBox="0 0 24 24" fill="none" xmlns="http://www.w3.org/2000/svg">
<path fill-rule="evenodd" clip-rule="evenodd" d="M7.22699 7.22711C7.51989 6.93421 7.99476 6.93421 8.28765 7.22711L16.7729 15.7124C17.0658 16.0053 17.0658 16.4802 16.7729 16.773C16.48 17.0659 16.0052 17.0659 15.7123 16.773L7.22699 8.28777C6.9341 7.99487 6.9341 7.52 7.22699 7.22711Z" fill="#100F11"/>
<path fill-rule="evenodd" clip-rule="evenodd" d="M16.773 7.22711C17.0659 7.52 17.0659 7.99487 16.773 8.28777L8.28772 16.773C7.99483 17.0659 7.51996 17.0659 7.22706 16.773C6.93417 16.4802 6.93417 16.0053 7.22706 15.7124L15.7123 7.22711C16.0052 6.93421 16.4801 6.93421 16.773 7.22711Z" fill="#100F11"/>
</svg>
