<svg width="58" height="56" viewBox="0 0 58 56" fill="none" xmlns="http://www.w3.org/2000/svg">
<path d="M58 7.86394C58 5.7783 57.0973 3.77807 55.4904 2.3033C53.8836 0.82852 51.7042 0 49.4318 0H8.56818C6.29576 0 4.11641 0.82852 2.50956 2.3033C0.902716 3.77807 0 5.7783 0 7.86394V45.3689C0 47.4545 0.902716 49.4548 2.50956 50.9295C4.11641 52.4043 6.29576 53.2328 8.56818 53.2328H24.3811L24.3863 51.4181V49.6033H8.56818C7.34456 49.6033 6.17107 49.1572 5.30585 48.3631C4.44062 47.569 3.95454 46.4919 3.95454 45.3689V15.7351H54.0454V45.3689C54.0454 46.4919 53.5593 47.569 52.6941 48.3631C51.8289 49.1572 50.6554 49.6033 49.4318 49.6033H33.6136V53.2328H49.4318C51.7042 53.2328 53.8836 52.4043 55.4904 50.9295C57.0973 49.4548 58 47.4545 58 45.3689V7.86394ZM8.56818 3.62951H49.4318C51.9785 3.62951 54.0454 5.52654 54.0454 7.86394V12.1056H3.95454V7.86394C3.95454 5.52654 6.02145 3.62951 8.56818 3.62951ZM32.2954 24.8017C32.2954 25.6038 31.9482 26.3732 31.3302 26.9404C30.7122 27.5076 29.874 27.8263 29 27.8263C28.126 27.8263 27.2878 27.5076 26.6697 26.9404C26.0517 26.3732 25.7045 25.6038 25.7045 24.8017C25.7045 23.9995 26.0517 23.2302 26.6697 22.663C27.2878 22.0957 28.126 21.7771 29 21.7771C29.874 21.7771 30.7122 22.0957 31.3302 22.663C31.9482 23.2302 32.2954 23.9995 32.2954 24.8017ZM33.6189 41.8846C33.8107 42.0541 34.0378 42.1864 34.2866 42.2735C34.5355 42.3605 34.8009 42.4005 35.067 42.3911C35.3331 42.3817 35.5944 42.323 35.8352 42.2186C36.076 42.1142 36.2913 41.9663 36.4683 41.7836C36.6453 41.601 36.7802 41.3874 36.865 41.1557C36.9499 40.9241 36.9828 40.679 36.962 40.4354C36.9411 40.1917 36.8668 39.9544 36.7435 39.7378C36.6203 39.5211 36.4506 39.3295 36.2447 39.1745L30.3129 34.3352C29.951 34.0403 29.4839 33.8774 29 33.8774C28.5161 33.8774 28.0489 34.0403 27.6871 34.3352L21.7553 39.1745C21.5494 39.3295 21.3797 39.5211 21.2564 39.7378C21.1332 39.9544 21.0589 40.1917 21.038 40.4354C21.0171 40.679 21.0501 40.9241 21.1349 41.1557C21.2197 41.3874 21.3547 41.601 21.5317 41.7836C21.7086 41.9663 21.924 42.1142 22.1648 42.2186C22.4056 42.323 22.6668 42.3817 22.9329 42.3911C23.1991 42.4005 23.4645 42.3605 23.7133 42.2735C23.9622 42.1864 24.1893 42.0541 24.3811 41.8846L27.0227 39.7311V53.8378C27.0227 54.3191 27.231 54.7807 27.6018 55.121C27.9727 55.4613 28.4756 55.6525 29 55.6525C29.5244 55.6525 30.0273 55.4613 30.3981 55.121C30.7689 54.7807 30.9773 54.3191 30.9773 53.8378V39.7311L33.6189 41.8846Z" fill="#F8F8F8"/>
</svg>
