<svg width="42" height="42" viewBox="0 0 42 42" fill="none" xmlns="http://www.w3.org/2000/svg">
<path d="M5.25 37.2H13.125V25.2C13.125 24.52 13.377 23.9504 13.881 23.4912C14.385 23.032 15.008 22.8016 15.75 22.8H26.25C26.9937 22.8 27.6176 23.0304 28.1216 23.4912C28.6256 23.952 28.8767 24.5216 28.875 25.2V37.2H36.75V15.6L21 4.8L5.25 15.6V37.2ZM0 37.2V15.6C0 14.84 0.186374 14.12 0.559124 13.44C0.931874 12.76 1.4455 12.2 2.1 11.76L17.85 0.96C18.7687 0.32 19.8187 0 21 0C22.1812 0 23.2312 0.32 24.15 0.96L39.9 11.76C40.5562 12.2 41.0707 12.76 41.4435 13.44C41.8162 14.12 42.0017 14.84 42 15.6V37.2C42 38.52 41.4855 39.6504 40.4565 40.5912C39.4275 41.532 38.192 42.0016 36.75 42H26.25C25.5062 42 24.8832 41.7696 24.381 41.3088C23.8787 40.848 23.6267 40.2784 23.625 39.6V27.6H18.375V39.6C18.375 40.28 18.123 40.8504 17.619 41.3112C17.115 41.772 16.492 42.0016 15.75 42H5.25C3.80625 42 2.57075 41.5304 1.5435 40.5912C0.516249 39.652 0.00175 38.5216 0 37.2Z" fill="#55F4BB"/>
</svg>
