<svg width="13" height="13" viewBox="0 0 13 13" fill="none" xmlns="http://www.w3.org/2000/svg">
<path fill-rule="evenodd" clip-rule="evenodd" d="M6.48653 0C7.04379 0 7.49554 0.452694 7.49554 1.01112L7.49518 5.48894H11.964C12.5213 5.48894 12.9731 5.94164 12.9731 6.50006C12.9731 7.05849 12.5213 7.51118 11.964 7.51118L7.49518 7.51082L7.49554 11.989C7.49554 12.5474 7.04379 13.0001 6.48653 13.0001C5.92926 13.0001 5.47751 12.5474 5.47751 11.989V7.51082L1.00902 7.51118C0.451752 7.51118 0 7.05849 0 6.50006C0 5.94164 0.451752 5.48894 1.00902 5.48894H5.47751V1.01112C5.47751 0.452694 5.92926 0 6.48653 0Z" fill="#363736"/>
</svg>
